%TF.GenerationSoftware,KiCad,Pcbnew,(5.1.10-1-10_14)*%
%TF.CreationDate,2022-02-05T19:01:55-05:00*%
%TF.ProjectId,Proyecto_ELPO_PV,50726f79-6563-4746-9f5f-454c504f5f50,rev?*%
%TF.SameCoordinates,Original*%
%TF.FileFunction,Soldermask,Bot*%
%TF.FilePolarity,Negative*%
%FSLAX46Y46*%
G04 Gerber Fmt 4.6, Leading zero omitted, Abs format (unit mm)*
G04 Created by KiCad (PCBNEW (5.1.10-1-10_14)) date 2022-02-05 19:01:55*
%MOMM*%
%LPD*%
G01*
G04 APERTURE LIST*
%ADD10R,2.100000X2.100000*%
%ADD11O,2.100000X2.100000*%
%ADD12C,3.000000*%
%ADD13R,3.000000X3.000000*%
%ADD14O,1.600000X1.600000*%
%ADD15R,1.600000X1.600000*%
%ADD16C,1.560000*%
%ADD17R,1.560000X1.560000*%
%ADD18R,1.700000X1.700000*%
%ADD19O,1.700000X1.700000*%
%ADD20C,2.000000*%
%ADD21R,1.600000X1.500000*%
%ADD22C,1.600000*%
%ADD23R,2.200000X2.200000*%
%ADD24O,2.200000X2.200000*%
%ADD25O,2.000000X1.905000*%
%ADD26R,2.000000X1.905000*%
%ADD27C,2.200000*%
%ADD28R,1.905000X2.000000*%
%ADD29O,1.905000X2.000000*%
%ADD30R,2.400000X1.600000*%
%ADD31O,2.400000X1.600000*%
%ADD32R,0.800000X0.900000*%
G04 APERTURE END LIST*
D10*
%TO.C,OFF/ON*%
X47447200Y-40728900D03*
D11*
X47447200Y-38188900D03*
X47447200Y-35648900D03*
%TD*%
D12*
%TO.C,OUTPUT*%
X49174400Y-113588800D03*
D13*
X49174400Y-118668800D03*
%TD*%
%TO.C,INPUT*%
X49034700Y-54241700D03*
D12*
X49034700Y-49161700D03*
%TD*%
D14*
%TO.C,U1*%
X82016600Y-50482500D03*
X89636600Y-35242500D03*
X82016600Y-47942500D03*
X89636600Y-37782500D03*
X82016600Y-45402500D03*
X89636600Y-40322500D03*
X82016600Y-42862500D03*
X89636600Y-42862500D03*
X82016600Y-40322500D03*
X89636600Y-45402500D03*
X82016600Y-37782500D03*
X89636600Y-47942500D03*
X82016600Y-35242500D03*
D15*
X89636600Y-50482500D03*
%TD*%
D16*
%TO.C,U4*%
X107772200Y-71576000D03*
X107772200Y-74116000D03*
X107772200Y-76656000D03*
X107772200Y-79196000D03*
X107772200Y-81736000D03*
X107772200Y-84276000D03*
X107772200Y-86816000D03*
X107772200Y-89356000D03*
X107772200Y-91896000D03*
X107772200Y-94436000D03*
X107772200Y-96976000D03*
X107772200Y-99516000D03*
X107772200Y-102056000D03*
X107772200Y-104596000D03*
X107772200Y-107136000D03*
X133172200Y-71576000D03*
X133172200Y-74116000D03*
X133172200Y-76656000D03*
X133172200Y-79196000D03*
X133172200Y-81736000D03*
X133172200Y-84276000D03*
X133172200Y-86816000D03*
X133172200Y-89356000D03*
X133172200Y-91896000D03*
X133172200Y-94436000D03*
X133172200Y-96976000D03*
X133172200Y-99516000D03*
X133172200Y-102056000D03*
X133172200Y-104596000D03*
D17*
X133172200Y-107136000D03*
%TD*%
D18*
%TO.C,oled1*%
X83134200Y-95910400D03*
D19*
X85674200Y-95910400D03*
X88214200Y-95910400D03*
X90754200Y-95910400D03*
%TD*%
D18*
%TO.C,sen1*%
X97726500Y-89496900D03*
D19*
X95186500Y-89496900D03*
X92646500Y-89496900D03*
X90106500Y-89496900D03*
X87566500Y-89496900D03*
X85026500Y-89496900D03*
%TD*%
D20*
%TO.C,down*%
X124637800Y-121238400D03*
X124637800Y-116738400D03*
X131137800Y-121238400D03*
X131137800Y-116738400D03*
%TD*%
%TO.C,up*%
X115656500Y-116738400D03*
X115656500Y-121238400D03*
X109156500Y-116738400D03*
X109156500Y-121238400D03*
%TD*%
D12*
%TO.C,OUT2*%
X53724400Y-117276700D03*
X66864400Y-117276700D03*
D21*
X56794400Y-114566700D03*
D22*
X59294400Y-114566700D03*
X61294400Y-114566700D03*
X63794400Y-114566700D03*
%TD*%
D15*
%TO.C,C2*%
X77393800Y-84213700D03*
D22*
X74893800Y-84213700D03*
%TD*%
D23*
%TO.C,D2*%
X64503300Y-91160600D03*
D24*
X74663300Y-91160600D03*
%TD*%
D12*
%TO.C,L2*%
X52539900Y-107450000D03*
X52539900Y-95250000D03*
%TD*%
D25*
%TO.C,Q2*%
X44145200Y-84886800D03*
X44145200Y-82346800D03*
D26*
X44145200Y-79806800D03*
%TD*%
D22*
%TO.C,R1*%
X75971400Y-65468500D03*
D14*
X75971400Y-78168500D03*
%TD*%
D15*
%TO.C,U2*%
X53708300Y-75488800D03*
D14*
X68948300Y-67868800D03*
X56248300Y-75488800D03*
X66408300Y-67868800D03*
X58788300Y-75488800D03*
X63868300Y-67868800D03*
X61328300Y-75488800D03*
X61328300Y-67868800D03*
X63868300Y-75488800D03*
X58788300Y-67868800D03*
X66408300Y-75488800D03*
X56248300Y-67868800D03*
X68948300Y-75488800D03*
X53708300Y-67868800D03*
%TD*%
D24*
%TO.C,DB2*%
X56349900Y-79311500D03*
D23*
X66509900Y-79311500D03*
%TD*%
D27*
%TO.C,CB2*%
X68567300Y-84442300D03*
X53567300Y-84442300D03*
%TD*%
D22*
%TO.C,Rd2*%
X60934600Y-59258200D03*
D14*
X73634600Y-59258200D03*
%TD*%
D28*
%TO.C,Q1*%
X82740500Y-60223400D03*
D29*
X85280500Y-60223400D03*
X87820500Y-60223400D03*
%TD*%
D24*
%TO.C,DB1*%
X95834200Y-50838100D03*
D23*
X95834200Y-40678100D03*
%TD*%
D22*
%TO.C,CB1*%
X95796100Y-36639500D03*
X100796100Y-36639500D03*
%TD*%
D24*
%TO.C,D1*%
X80899000Y-66738500D03*
D23*
X91059000Y-66738500D03*
%TD*%
D12*
%TO.C,L11*%
X104152700Y-44805600D03*
X116352700Y-44805600D03*
%TD*%
%TO.C,L12*%
X133370700Y-44818300D03*
X121170700Y-44818300D03*
%TD*%
D14*
%TO.C,R2*%
X56781700Y-34696400D03*
D22*
X56781700Y-47396400D03*
%TD*%
D30*
%TO.C,U3*%
X70307200Y-52793900D03*
D31*
X62687200Y-35013900D03*
X70307200Y-50253900D03*
X62687200Y-37553900D03*
X70307200Y-47713900D03*
X62687200Y-40093900D03*
X70307200Y-45173900D03*
X62687200Y-42633900D03*
X70307200Y-42633900D03*
X62687200Y-45173900D03*
X70307200Y-40093900D03*
X62687200Y-47713900D03*
X70307200Y-37553900D03*
X62687200Y-50253900D03*
X70307200Y-35013900D03*
X62687200Y-52793900D03*
%TD*%
D15*
%TO.C,C1*%
X103276400Y-64516000D03*
D22*
X100776400Y-64516000D03*
%TD*%
%TO.C,CT1*%
X77114400Y-37071300D03*
X74614400Y-37071300D03*
%TD*%
D32*
%TO.C,Q3*%
X90192900Y-80527400D03*
X88292900Y-80527400D03*
X89242900Y-78527400D03*
%TD*%
D22*
%TO.C,Rd1*%
X56781700Y-50406300D03*
D14*
X56781700Y-63106300D03*
%TD*%
%TO.C,RT1*%
X75399900Y-40195500D03*
D22*
X75399900Y-52895500D03*
%TD*%
M02*
