M48
; DRILL file {KiCad (5.1.10-1-10_14)} date Saturday, February 05, 2022 at 05:38:53 PM
; FORMAT={-:-/ absolute / inch / decimal}
; #@! TF.CreationDate,2022-02-05T17:38:53-05:00
; #@! TF.GenerationSoftware,Kicad,Pcbnew,(5.1.10-1-10_14)
; #@! TF.FileFunction,Plated,1,2,PTH
FMAT,2
INCH
T1C0.0315
T2C0.0374
T3C0.0394
T4C0.0409
T5C0.0433
T6C0.0551
T7C0.0591
T8C0.0598
T9C0.0906
%
G90
G05
T1
X2.1145Y-2.672
X2.1145Y-2.972
X2.2145Y-2.672
X2.2145Y-2.972
X2.2355Y-1.366
X2.2355Y-1.866
X2.2355Y-1.9845
X2.2355Y-2.4845
X2.3145Y-2.672
X2.3145Y-2.972
X2.399Y-2.333
X2.4145Y-2.672
X2.4145Y-2.972
X2.468Y-1.3785
X2.468Y-1.4785
X2.468Y-1.5785
X2.468Y-1.6785
X2.468Y-1.7785
X2.468Y-1.8785
X2.468Y-1.9785
X2.468Y-2.0785
X2.5145Y-2.672
X2.5145Y-2.972
X2.6145Y-2.672
X2.6145Y-2.972
X2.7145Y-2.672
X2.7145Y-2.972
X2.768Y-1.3785
X2.768Y-1.4785
X2.768Y-1.5785
X2.768Y-1.6785
X2.768Y-1.7785
X2.768Y-1.8785
X2.768Y-1.9785
X2.768Y-2.0785
X2.899Y-2.333
X2.9376Y-1.4595
X2.9486Y-3.3155
X2.9685Y-1.5825
X2.9685Y-2.0825
X2.991Y-2.5775
X2.991Y-3.0775
X3.036Y-1.4595
X3.047Y-3.3155
X3.229Y-1.3875
X3.229Y-1.4875
X3.229Y-1.5875
X3.229Y-1.6875
X3.229Y-1.7875
X3.229Y-1.8875
X3.229Y-1.9875
X3.529Y-1.3875
X3.529Y-1.4875
X3.529Y-1.5875
X3.529Y-1.6875
X3.529Y-1.7875
X3.529Y-1.8875
X3.529Y-1.9875
X3.7715Y-1.4425
X3.9676Y-2.54
X3.9684Y-1.4425
X4.066Y-2.54
T2
X2.236Y-4.5105
X2.3344Y-4.5105
X2.4132Y-4.5105
X2.5116Y-4.5105
T3
X3.273Y-3.776
X3.3475Y-3.5235
X3.373Y-3.776
X3.4475Y-3.5235
X3.473Y-3.776
X3.5475Y-3.5235
X3.573Y-3.776
X3.6475Y-3.5235
X3.7475Y-3.5235
X3.8475Y-3.5235
T4
X4.243Y-2.818
X4.243Y-2.918
X4.243Y-3.018
X4.243Y-3.118
X4.243Y-3.218
X4.243Y-3.318
X4.243Y-3.418
X4.243Y-3.518
X4.243Y-3.618
X4.243Y-3.718
X4.243Y-3.818
X4.243Y-3.918
X4.243Y-4.018
X4.243Y-4.118
X4.243Y-4.218
X5.243Y-2.818
X5.243Y-2.918
X5.243Y-3.018
X5.243Y-3.118
X5.243Y-3.218
X5.243Y-3.318
X5.243Y-3.418
X5.243Y-3.518
X5.243Y-3.618
X5.243Y-3.718
X5.243Y-3.818
X5.243Y-3.918
X5.243Y-4.018
X5.243Y-4.118
X5.243Y-4.218
T5
X1.738Y-3.142
X1.738Y-3.242
X1.738Y-3.342
X2.1089Y-3.3245
X2.2185Y-3.1225
X2.5395Y-3.589
X2.6185Y-3.1225
X2.6995Y-3.3245
X2.9395Y-3.589
X3.185Y-2.6275
X3.2575Y-2.371
X3.3575Y-2.371
X3.4575Y-2.371
X3.585Y-2.6275
X3.773Y-1.6015
X3.773Y-2.0015
X4.2975Y-4.596
X4.2975Y-4.7732
X4.5534Y-4.596
X4.5534Y-4.7732
X4.907Y-4.596
X4.907Y-4.7732
X5.1629Y-4.596
X5.1629Y-4.7732
T6
X1.868Y-1.4035
X1.868Y-1.5035
X1.868Y-1.6035
T7
X2.0685Y-3.75
X2.0685Y-4.2303
X4.1005Y-1.764
X4.5808Y-1.764
X4.7705Y-1.7645
X5.2508Y-1.7645
T8
X1.9305Y-1.9355
X1.9305Y-2.1355
X1.936Y-4.472
X1.936Y-4.672
T9
X2.1151Y-4.6172
X2.6325Y-4.6172
T0
M30
