%TF.GenerationSoftware,KiCad,Pcbnew,(5.1.10-1-10_14)*%
%TF.CreationDate,2022-02-05T17:42:02-05:00*%
%TF.ProjectId,Proyecto_ELPO_PV,50726f79-6563-4746-9f5f-454c504f5f50,rev?*%
%TF.SameCoordinates,Original*%
%TF.FileFunction,Copper,L1,Top*%
%TF.FilePolarity,Positive*%
%FSLAX46Y46*%
G04 Gerber Fmt 4.6, Leading zero omitted, Abs format (unit mm)*
G04 Created by KiCad (PCBNEW (5.1.10-1-10_14)) date 2022-02-05 17:42:02*
%MOMM*%
%LPD*%
G01*
G04 APERTURE LIST*
%TA.AperFunction,ComponentPad*%
%ADD10R,2.100000X2.100000*%
%TD*%
%TA.AperFunction,ComponentPad*%
%ADD11O,2.100000X2.100000*%
%TD*%
%TA.AperFunction,ComponentPad*%
%ADD12C,3.000000*%
%TD*%
%TA.AperFunction,ComponentPad*%
%ADD13R,3.000000X3.000000*%
%TD*%
%TA.AperFunction,ComponentPad*%
%ADD14O,1.600000X1.600000*%
%TD*%
%TA.AperFunction,ComponentPad*%
%ADD15R,1.600000X1.600000*%
%TD*%
%TA.AperFunction,ComponentPad*%
%ADD16C,1.560000*%
%TD*%
%TA.AperFunction,ComponentPad*%
%ADD17R,1.560000X1.560000*%
%TD*%
%TA.AperFunction,ComponentPad*%
%ADD18R,1.700000X1.700000*%
%TD*%
%TA.AperFunction,ComponentPad*%
%ADD19O,1.700000X1.700000*%
%TD*%
%TA.AperFunction,ComponentPad*%
%ADD20C,2.000000*%
%TD*%
%TA.AperFunction,ComponentPad*%
%ADD21R,1.600000X1.500000*%
%TD*%
%TA.AperFunction,ComponentPad*%
%ADD22C,1.600000*%
%TD*%
%TA.AperFunction,ComponentPad*%
%ADD23R,2.200000X2.200000*%
%TD*%
%TA.AperFunction,ComponentPad*%
%ADD24O,2.200000X2.200000*%
%TD*%
%TA.AperFunction,ComponentPad*%
%ADD25O,2.000000X1.905000*%
%TD*%
%TA.AperFunction,ComponentPad*%
%ADD26R,2.000000X1.905000*%
%TD*%
%TA.AperFunction,ComponentPad*%
%ADD27C,2.200000*%
%TD*%
%TA.AperFunction,ComponentPad*%
%ADD28R,1.905000X2.000000*%
%TD*%
%TA.AperFunction,ComponentPad*%
%ADD29O,1.905000X2.000000*%
%TD*%
%TA.AperFunction,ComponentPad*%
%ADD30R,2.400000X1.600000*%
%TD*%
%TA.AperFunction,ComponentPad*%
%ADD31O,2.400000X1.600000*%
%TD*%
G04 APERTURE END LIST*
D10*
%TO.P,ON/OFF,1*%
%TO.N,Net-(ON/OFF1-Pad1)*%
X47447200Y-40728900D03*
D11*
%TO.P,ON/OFF,2*%
%TO.N,Vpv*%
X47447200Y-38188900D03*
%TO.P,ON/OFF,*%
%TO.N,*%
X47447200Y-35648900D03*
%TD*%
D12*
%TO.P,OUTPUT,2*%
%TO.N,Net-(J1-Pad1)*%
X49174400Y-113588800D03*
D13*
%TO.P,OUTPUT,1*%
%TO.N,GND*%
X49174400Y-118668800D03*
%TD*%
%TO.P,INPUT,2*%
%TO.N,GND*%
X49034700Y-54241700D03*
D12*
%TO.P,INPUT,1*%
%TO.N,Net-(ON/OFF1-Pad1)*%
X49034700Y-49161700D03*
%TD*%
D14*
%TO.P,U1,14*%
%TO.N,Net-(U1-Pad14)*%
X82016600Y-50482500D03*
%TO.P,U1,7*%
%TO.N,/driver1/PWM_out*%
X89636600Y-35242500D03*
%TO.P,U1,13*%
%TO.N,GND*%
X82016600Y-47942500D03*
%TO.P,U1,6*%
%TO.N,Net-(CB1-Pad1)*%
X89636600Y-37782500D03*
%TO.P,U1,12*%
%TO.N,GND*%
X82016600Y-45402500D03*
%TO.P,U1,5*%
%TO.N,/buck1/Vs*%
X89636600Y-40322500D03*
%TO.P,U1,11*%
%TO.N,GND*%
X82016600Y-42862500D03*
%TO.P,U1,4*%
%TO.N,Net-(U1-Pad4)*%
X89636600Y-42862500D03*
%TO.P,U1,10*%
%TO.N,/TL494/PWM*%
X82016600Y-40322500D03*
%TO.P,U1,3*%
%TO.N,Vpv*%
X89636600Y-45402500D03*
%TO.P,U1,9*%
X82016600Y-37782500D03*
%TO.P,U1,2*%
%TO.N,GND*%
X89636600Y-47942500D03*
%TO.P,U1,8*%
%TO.N,Net-(U1-Pad8)*%
X82016600Y-35242500D03*
D15*
%TO.P,U1,1*%
%TO.N,Net-(U1-Pad1)*%
X89636600Y-50482500D03*
%TD*%
D16*
%TO.P,U4,30*%
%TO.N,Net-(U4-Pad30)*%
X107772200Y-71576000D03*
%TO.P,U4,29*%
%TO.N,GND*%
X107772200Y-74116000D03*
%TO.P,U4,28*%
%TO.N,Net-(U4-Pad28)*%
X107772200Y-76656000D03*
%TO.P,U4,27*%
%TO.N,Net-(U4-Pad27)*%
X107772200Y-79196000D03*
%TO.P,U4,26*%
%TO.N,Net-(U4-Pad26)*%
X107772200Y-81736000D03*
%TO.P,U4,25*%
%TO.N,Net-(U4-Pad25)*%
X107772200Y-84276000D03*
%TO.P,U4,24*%
%TO.N,Net-(Q3-Pad1)*%
X107772200Y-86816000D03*
%TO.P,U4,23*%
%TO.N,Net-(U4-Pad23)*%
X107772200Y-89356000D03*
%TO.P,U4,22*%
%TO.N,Net-(U4-Pad22)*%
X107772200Y-91896000D03*
%TO.P,U4,21*%
%TO.N,Net-(U4-Pad21)*%
X107772200Y-94436000D03*
%TO.P,U4,20*%
%TO.N,Net-(U4-Pad20)*%
X107772200Y-96976000D03*
%TO.P,U4,19*%
%TO.N,Net-(U4-Pad19)*%
X107772200Y-99516000D03*
%TO.P,U4,18*%
%TO.N,Net-(U4-Pad18)*%
X107772200Y-102056000D03*
%TO.P,U4,17*%
%TO.N,Net-(U4-Pad17)*%
X107772200Y-104596000D03*
%TO.P,U4,16*%
%TO.N,Net-(U4-Pad16)*%
X107772200Y-107136000D03*
%TO.P,U4,1*%
%TO.N,/driver2/Vcc*%
X133172200Y-71576000D03*
%TO.P,U4,2*%
%TO.N,GND*%
X133172200Y-74116000D03*
%TO.P,U4,3*%
%TO.N,Net-(U4-Pad3)*%
X133172200Y-76656000D03*
%TO.P,U4,4*%
%TO.N,Net-(U4-Pad4)*%
X133172200Y-79196000D03*
%TO.P,U4,5*%
%TO.N,Net-(U4-Pad5)*%
X133172200Y-81736000D03*
%TO.P,U4,6*%
%TO.N,Net-(U4-Pad6)*%
X133172200Y-84276000D03*
%TO.P,U4,7*%
%TO.N,Net-(U4-Pad7)*%
X133172200Y-86816000D03*
%TO.P,U4,8*%
%TO.N,Net-(U4-Pad8)*%
X133172200Y-89356000D03*
%TO.P,U4,9*%
%TO.N,Net-(U4-Pad9)*%
X133172200Y-91896000D03*
%TO.P,U4,10*%
%TO.N,Net-(U4-Pad10)*%
X133172200Y-94436000D03*
%TO.P,U4,11*%
%TO.N,Net-(U4-Pad11)*%
X133172200Y-96976000D03*
%TO.P,U4,12*%
%TO.N,Net-(U4-Pad12)*%
X133172200Y-99516000D03*
%TO.P,U4,13*%
%TO.N,Net-(U4-Pad13)*%
X133172200Y-102056000D03*
%TO.P,U4,14*%
%TO.N,Net-(U4-Pad14)*%
X133172200Y-104596000D03*
D17*
%TO.P,U4,15*%
%TO.N,Net-(U4-Pad15)*%
X133172200Y-107136000D03*
%TD*%
D18*
%TO.P,oled1,4*%
%TO.N,Net-(U4-Pad30)*%
X83134200Y-95910400D03*
D19*
%TO.P,oled1,3*%
%TO.N,GND*%
X85674200Y-95910400D03*
%TO.P,oled1,2*%
%TO.N,Net-(U4-Pad17)*%
X88214200Y-95910400D03*
%TO.P,oled1,1*%
%TO.N,Net-(U4-Pad20)*%
X90754200Y-95910400D03*
%TD*%
D18*
%TO.P,sen1,6*%
%TO.N,/buck2/Vout*%
X97726500Y-89496900D03*
D19*
%TO.P,sen1,5*%
%TO.N,Net-(J1-Pad1)*%
X95186500Y-89496900D03*
%TO.P,sen1,4*%
%TO.N,Net-(U4-Pad20)*%
X92646500Y-89496900D03*
%TO.P,sen1,3*%
%TO.N,Net-(U4-Pad17)*%
X90106500Y-89496900D03*
%TO.P,sen1,2*%
%TO.N,GND*%
X87566500Y-89496900D03*
%TO.P,sen1,1*%
%TO.N,Net-(U4-Pad30)*%
X85026500Y-89496900D03*
%TD*%
D20*
%TO.P,down,2*%
%TO.N,GND*%
X124637800Y-121238400D03*
%TO.P,down,1*%
%TO.N,Net-(U4-Pad25)*%
X124637800Y-116738400D03*
%TO.P,down,2*%
%TO.N,GND*%
X131137800Y-121238400D03*
%TO.P,down,1*%
%TO.N,Net-(U4-Pad25)*%
X131137800Y-116738400D03*
%TD*%
%TO.P,up,1*%
%TO.N,Net-(U4-Pad22)*%
X115656500Y-116738400D03*
%TO.P,up,2*%
%TO.N,GND*%
X115656500Y-121238400D03*
%TO.P,up,1*%
%TO.N,Net-(U4-Pad22)*%
X109156500Y-116738400D03*
%TO.P,up,2*%
%TO.N,GND*%
X109156500Y-121238400D03*
%TD*%
D12*
%TO.P,OUT2,5*%
%TO.N,GND*%
X53724400Y-117276700D03*
X66864400Y-117276700D03*
D21*
%TO.P,OUT2,1*%
%TO.N,Net-(J1-Pad1)*%
X56794400Y-114566700D03*
D22*
%TO.P,OUT2,2*%
%TO.N,Net-(J1-Pad2)*%
X59294400Y-114566700D03*
%TO.P,OUT2,3*%
%TO.N,Net-(J1-Pad3)*%
X61294400Y-114566700D03*
%TO.P,OUT2,4*%
%TO.N,GND*%
X63794400Y-114566700D03*
%TD*%
D15*
%TO.P,C2,1*%
%TO.N,/buck2/Vout*%
X77393800Y-84213700D03*
D22*
%TO.P,C2,2*%
%TO.N,GND*%
X74893800Y-84213700D03*
%TD*%
D23*
%TO.P,D2,1*%
%TO.N,/buck2/Vs*%
X64503300Y-91160600D03*
D24*
%TO.P,D2,2*%
%TO.N,GND*%
X74663300Y-91160600D03*
%TD*%
D12*
%TO.P,L2,2*%
%TO.N,/buck2/Vout*%
X52539900Y-107450000D03*
%TO.P,L2,1*%
%TO.N,/buck2/Vs*%
X52539900Y-95250000D03*
%TD*%
D25*
%TO.P,Q2,3*%
%TO.N,/buck2/Vs*%
X44145200Y-84886800D03*
%TO.P,Q2,2*%
%TO.N,Vpv*%
X44145200Y-82346800D03*
D26*
%TO.P,Q2,1*%
%TO.N,/driver2/PWM_out*%
X44145200Y-79806800D03*
%TD*%
D22*
%TO.P,R1,1*%
%TO.N,/driver2/Vcc*%
X75971400Y-65468500D03*
D14*
%TO.P,R1,2*%
%TO.N,/driver2/PWM_in*%
X75971400Y-78168500D03*
%TD*%
D15*
%TO.P,U2,1*%
%TO.N,Net-(U2-Pad1)*%
X53708300Y-75488800D03*
D14*
%TO.P,U2,8*%
%TO.N,Net-(U2-Pad8)*%
X68948300Y-67868800D03*
%TO.P,U2,2*%
%TO.N,GND*%
X56248300Y-75488800D03*
%TO.P,U2,9*%
%TO.N,/driver2/Vcc*%
X66408300Y-67868800D03*
%TO.P,U2,3*%
X58788300Y-75488800D03*
%TO.P,U2,10*%
%TO.N,/driver2/PWM_in*%
X63868300Y-67868800D03*
%TO.P,U2,4*%
%TO.N,Net-(U2-Pad4)*%
X61328300Y-75488800D03*
%TO.P,U2,11*%
%TO.N,GND*%
X61328300Y-67868800D03*
%TO.P,U2,5*%
%TO.N,/buck2/Vs*%
X63868300Y-75488800D03*
%TO.P,U2,12*%
%TO.N,GND*%
X58788300Y-67868800D03*
%TO.P,U2,6*%
%TO.N,Net-(CB2-Pad1)*%
X66408300Y-75488800D03*
%TO.P,U2,13*%
%TO.N,GND*%
X56248300Y-67868800D03*
%TO.P,U2,7*%
%TO.N,/driver2/PWM_out*%
X68948300Y-75488800D03*
%TO.P,U2,14*%
%TO.N,Net-(U2-Pad14)*%
X53708300Y-67868800D03*
%TD*%
D24*
%TO.P,DB2,2*%
%TO.N,/driver2/Vcc*%
X56349900Y-79311500D03*
D23*
%TO.P,DB2,1*%
%TO.N,Net-(CB2-Pad1)*%
X66509900Y-79311500D03*
%TD*%
D27*
%TO.P,CB2,1*%
%TO.N,Net-(CB2-Pad1)*%
X68567300Y-84442300D03*
%TO.P,CB2,2*%
%TO.N,/buck2/Vs*%
X53567300Y-84442300D03*
%TD*%
D22*
%TO.P,Rd2,1*%
%TO.N,GND*%
X60934600Y-59258200D03*
D14*
%TO.P,Rd2,2*%
%TO.N,Net-(Rd1-Pad2)*%
X73634600Y-59258200D03*
%TD*%
D28*
%TO.P,Q1,1*%
%TO.N,/driver1/PWM_out*%
X82740500Y-60223400D03*
D29*
%TO.P,Q1,2*%
%TO.N,Vpv*%
X85280500Y-60223400D03*
%TO.P,Q1,3*%
%TO.N,/buck1/Vs*%
X87820500Y-60223400D03*
%TD*%
D24*
%TO.P,DB1,2*%
%TO.N,Vpv*%
X95834200Y-50838100D03*
D23*
%TO.P,DB1,1*%
%TO.N,Net-(CB1-Pad1)*%
X95834200Y-40678100D03*
%TD*%
D22*
%TO.P,CB1,1*%
%TO.N,Net-(CB1-Pad1)*%
X95796100Y-36639500D03*
%TO.P,CB1,2*%
%TO.N,/buck1/Vs*%
X100796100Y-36639500D03*
%TD*%
D24*
%TO.P,D1,2*%
%TO.N,GND*%
X80899000Y-66738500D03*
D23*
%TO.P,D1,1*%
%TO.N,/buck1/Vs*%
X91059000Y-66738500D03*
%TD*%
D12*
%TO.P,L11,1*%
%TO.N,/buck1/Vs*%
X104152700Y-44805600D03*
%TO.P,L11,2*%
%TO.N,Net-(L11-Pad2)*%
X116352700Y-44805600D03*
%TD*%
%TO.P,L12,2*%
%TO.N,/driver2/Vcc*%
X133370700Y-44818300D03*
%TO.P,L12,1*%
%TO.N,Net-(L11-Pad2)*%
X121170700Y-44818300D03*
%TD*%
D14*
%TO.P,R2,2*%
%TO.N,/TL494/PWM*%
X56781700Y-34696400D03*
D22*
%TO.P,R2,1*%
%TO.N,Vpv*%
X56781700Y-47396400D03*
%TD*%
D30*
%TO.P,U3,1*%
%TO.N,GND*%
X70307200Y-52793900D03*
D31*
%TO.P,U3,9*%
X62687200Y-35013900D03*
%TO.P,U3,2*%
X70307200Y-50253900D03*
%TO.P,U3,10*%
X62687200Y-37553900D03*
%TO.P,U3,3*%
%TO.N,Net-(Rd1-Pad2)*%
X70307200Y-47713900D03*
%TO.P,U3,11*%
%TO.N,/TL494/PWM*%
X62687200Y-40093900D03*
%TO.P,U3,4*%
%TO.N,GND*%
X70307200Y-45173900D03*
%TO.P,U3,12*%
%TO.N,Vpv*%
X62687200Y-42633900D03*
%TO.P,U3,5*%
%TO.N,Net-(CT1-Pad1)*%
X70307200Y-42633900D03*
%TO.P,U3,13*%
%TO.N,Net-(Rd1-Pad1)*%
X62687200Y-45173900D03*
%TO.P,U3,6*%
%TO.N,Net-(RT1-Pad2)*%
X70307200Y-40093900D03*
%TO.P,U3,14*%
%TO.N,Net-(Rd1-Pad1)*%
X62687200Y-47713900D03*
%TO.P,U3,7*%
%TO.N,GND*%
X70307200Y-37553900D03*
%TO.P,U3,15*%
X62687200Y-50253900D03*
%TO.P,U3,8*%
%TO.N,/TL494/PWM*%
X70307200Y-35013900D03*
%TO.P,U3,16*%
%TO.N,GND*%
X62687200Y-52793900D03*
%TD*%
D15*
%TO.P,C1,1*%
%TO.N,/driver2/Vcc*%
X103276400Y-64516000D03*
D22*
%TO.P,C1,2*%
%TO.N,GND*%
X100776400Y-64516000D03*
%TD*%
%TO.P,CT1,1*%
%TO.N,Net-(CT1-Pad1)*%
X77114400Y-37071300D03*
%TO.P,CT1,2*%
%TO.N,GND*%
X74614400Y-37071300D03*
%TD*%
%TO.P,Rd1,1*%
%TO.N,Net-(Rd1-Pad1)*%
X56781700Y-50406300D03*
D14*
%TO.P,Rd1,2*%
%TO.N,Net-(Rd1-Pad2)*%
X56781700Y-63106300D03*
%TD*%
%TO.P,RT1,2*%
%TO.N,Net-(RT1-Pad2)*%
X75399900Y-40195500D03*
D22*
%TO.P,RT1,1*%
%TO.N,GND*%
X75399900Y-52895500D03*
%TD*%
M02*
